<?xml version="1.0" standalone="no"?>
<!DOCTYPE svg PUBLIC "-//W3C//DTD SVG 20010904//EN"
 "http://www.w3.org/TR/2001/REC-SVG-20010904/DTD/svg10.dtd">
<svg version="1.0" xmlns="http://www.w3.org/2000/svg"
 width="700.000000pt" height="700.000000pt" viewBox="0 0 700.000000 700.000000"
 preserveAspectRatio="xMidYMid meet">
<metadata>
Created by potrace 1.11, written by Peter Selinger 2001-2013
</metadata>
<g transform="translate(0.000000,700.000000) scale(0.100000,-0.100000)"
fill="#000000" stroke="none">
<path d="M3146 6184 c-546 -70 -1056 -291 -1461 -635 -45 -37 -135 -123 -201
-191 -704 -725 -927 -1783 -584 -2773 51 -145 165 -385 245 -515 385 -621
1027 -1063 1765 -1214 140 -28 354 -57 415 -55 44 2 36 3 -100 20 -775 94
-1499 533 -1923 1166 -432 646 -570 1486 -367 2228 94 342 268 684 491 965 90
113 296 318 414 412 398 317 887 523 1410 592 70 9 88 14 55 14 -27 0 -99 -7
-159 -14z"/>
<path d="M3750 6184 c1137 -151 2009 -890 2305 -1954 70 -254 98 -460 98 -740
1 -229 -9 -338 -50 -540 -162 -804 -698 -1493 -1448 -1860 -301 -147 -553
-224 -912 -275 l-98 -15 85 6 c210 12 525 79 735 156 415 152 755 373 1057
686 700 727 919 1779 578 2767 -54 155 -189 431 -277 565 -441 669 -1140 1096
-1976 1205 -65 8 -137 15 -160 14 -24 -1 2 -7 63 -15z"/>
<path d="M3544 5525 c-7 -18 12 -45 32 -45 17 0 18 32 2 48 -16 16 -27 15 -34
-3z"/>
<path d="M3450 5489 c7 -11 26 -37 44 -57 43 -49 61 -78 122 -200 29 -56 58
-126 64 -156 11 -54 33 -96 44 -85 8 8 -18 141 -37 195 -9 23 -31 62 -50 88
-20 25 -39 56 -42 68 -15 47 -78 139 -105 153 -41 21 -53 20 -40 -6z"/>
<path d="M3292 5460 c-23 -17 -42 -33 -42 -38 0 -4 29 -47 65 -97 36 -49 86
-131 111 -181 54 -107 60 -161 26 -236 -11 -27 -17 -48 -11 -48 12 0 49 37 49
51 0 6 14 9 31 7 28 -3 33 1 43 32 9 28 17 36 39 38 16 2 31 10 33 17 8 20
-24 122 -52 171 -13 22 -24 52 -24 66 0 14 -11 40 -24 59 -14 19 -41 59 -62
89 -20 30 -46 65 -57 78 -29 31 -75 29 -125 -8z m104 -78 c32 -47 64 -106 64
-117 0 -20 -25 7 -74 80 -43 66 -52 85 -39 85 10 0 32 -22 49 -48z m106 -169
c34 -39 73 -183 50 -183 -8 0 -66 129 -77 173 -8 31 5 35 27 10z"/>
<path d="M3610 5428 c1 -18 57 -84 65 -76 10 10 -36 88 -52 88 -7 0 -13 -6
-13 -12z"/>
<path d="M3706 5291 c-4 -5 0 -27 8 -48 8 -21 25 -67 37 -103 12 -36 27 -77
32 -93 l10 -27 34 20 c19 11 47 20 62 20 15 0 35 6 46 13 17 13 16 15 -15 25
-18 7 -45 12 -61 12 -24 0 -33 9 -70 80 -46 85 -73 118 -83 101z"/>
<path d="M2391 5200 c-52 -24 -177 -147 -215 -212 -83 -143 23 -185 187 -75
59 40 64 42 97 31 61 -20 151 2 293 73 48 24 87 39 87 35 0 -5 -14 -21 -31
-38 -41 -39 -72 -91 -65 -109 11 -30 56 -13 182 66 134 84 184 113 184 105 0
-2 -11 -28 -25 -58 -69 -147 3 -167 250 -68 78 31 103 45 94 54 -2 3 -57 -13
-122 -36 -178 -60 -206 -39 -127 96 70 120 54 124 -102 24 -204 -129 -221
-139 -232 -128 -6 6 1 23 22 47 56 66 85 112 79 128 -8 19 -22 13 -121 -48
-112 -69 -209 -109 -281 -114 -87 -6 -95 3 -52 66 46 67 63 117 47 136 -28 34
-95 4 -126 -57 -10 -20 -15 -49 -12 -87 l3 -56 -55 -33 c-40 -24 -65 -32 -90
-30 -33 3 -35 5 -34 40 2 67 143 220 216 235 23 4 26 8 17 19 -14 18 -15 18
-68 -6z m117 -75 c2 -12 -12 -41 -30 -65 l-32 -45 -9 31 c-13 45 14 107 45
102 14 -2 24 -11 26 -23z"/>
<path d="M1697 5135 c-50 -55 -98 -139 -104 -182 -10 -80 48 -98 147 -48 62
31 166 131 175 167 6 25 8 25 143 32 95 5 141 11 151 20 30 30 2 36 -179 36
l-180 0 -16 -25 c-15 -24 -15 -26 6 -43 16 -13 21 -24 16 -39 -10 -32 -66 -83
-113 -105 -93 -41 -109 25 -33 135 22 32 40 62 40 67 0 24 -23 17 -53 -15z"/>
<path d="M4125 5103 c-85 -7 -82 -23 8 -38 21 -3 41 -13 44 -21 7 -18 19 -18
27 1 6 17 -10 66 -21 63 -5 -1 -30 -3 -58 -5z"/>
<path d="M4356 5075 c-3 -9 -18 -15 -36 -15 -36 0 -32 -16 7 -31 14 -5 30 -23
36 -39 16 -44 37 -38 37 9 0 67 -28 116 -44 76z"/>
<path d="M4510 5051 c0 -5 11 -16 25 -25 31 -20 32 -52 3 -84 l-23 -24 28 -20
c21 -15 27 -28 27 -57 0 -44 -14 -61 -52 -61 -36 0 -28 -22 17 -50 19 -12 37
-30 40 -40 9 -27 19 -25 40 7 14 21 15 30 6 45 -14 22 -14 62 -1 110 9 31 7
44 -10 77 -11 22 -20 56 -20 76 0 29 -5 37 -26 45 -32 12 -54 13 -54 1z"/>
<path d="M3998 5013 c-22 -6 -23 -17 -2 -34 13 -10 17 -10 25 2 11 17 12 39 2
38 -5 -1 -16 -3 -25 -6z"/>
<path d="M4680 5001 c0 -7 16 -21 35 -32 19 -12 35 -27 35 -34 0 -28 -13 -45
-34 -45 -52 -1 -48 -18 13 -48 52 -26 62 -28 72 -15 10 11 10 22 1 47 -7 18
-12 48 -12 67 0 19 -4 39 -8 46 -10 16 -102 29 -102 14z"/>
<path d="M4870 4968 c0 -7 19 -29 42 -49 50 -43 47 -62 -13 -87 l-42 -18 32
-13 c17 -8 48 -27 69 -43 l37 -29 7 26 c4 15 3 38 -3 52 -18 48 -12 63 26 63
71 0 119 -91 53 -98 -34 -4 -36 -17 -5 -33 38 -20 67 -52 67 -74 0 -16 -10
-26 -41 -38 -36 -14 -39 -18 -29 -36 6 -12 24 -28 40 -36 26 -14 30 -21 30
-58 0 -43 0 -43 -34 -39 -31 4 -35 1 -41 -26 -11 -54 -45 -19 -60 62 -4 20 -9
36 -12 36 -3 0 -26 -23 -51 -51 -40 -45 -49 -50 -75 -45 -47 10 -57 23 -57 81
0 32 -5 57 -13 64 -19 15 -27 4 -27 -35 0 -31 -4 -35 -50 -55 -27 -12 -50 -25
-50 -29 0 -4 16 -18 34 -31 62 -42 66 -85 10 -119 -19 -12 -34 -28 -34 -36 0
-9 -11 -14 -30 -14 -37 0 -50 23 -50 92 0 61 -14 92 -30 68 -5 -8 -10 -27 -10
-42 0 -24 -4 -28 -30 -28 -19 0 -34 -7 -42 -19 -9 -15 -19 -18 -41 -14 -27 5
-28 4 -18 -14 11 -22 62 -68 82 -75 8 -3 9 -15 4 -36 -6 -29 -10 -32 -45 -32
-29 0 -39 -5 -43 -19 -2 -10 -13 -24 -24 -30 -17 -8 -22 -6 -34 15 -11 21 -10
48 9 187 13 89 22 174 22 190 0 24 4 27 33 27 17 0 52 -9 76 -20 24 -11 56
-20 72 -20 28 0 29 2 28 48 -1 84 -7 89 -62 47 -54 -41 -71 -42 -101 -2 -18
24 -22 48 -27 150 -3 67 -9 130 -14 140 -7 16 -9 17 -25 2 -13 -12 -28 -14
-59 -9 -49 8 -55 -8 -11 -26 60 -25 80 -48 80 -93 0 -23 -5 -59 -11 -79 -9
-36 -12 -38 -49 -38 -22 0 -40 -4 -40 -9 0 -5 20 -26 44 -45 l43 -36 -10 -49
c-8 -41 -14 -52 -37 -59 -15 -6 -39 -8 -53 -5 -38 7 -34 -6 18 -57 25 -24 45
-52 45 -62 0 -31 -23 -69 -38 -63 -49 19 -62 17 -72 -9 -12 -32 -17 -32 -51 0
l-26 25 24 76 c29 94 41 219 23 253 -12 23 -13 23 -34 -21 -22 -46 -21 -45
-88 -32 -45 9 -35 -20 22 -64 54 -42 57 -48 35 -99 -12 -29 -18 -34 -36 -29
-13 4 -27 1 -39 -10 -17 -15 -24 -16 -51 -5 l-31 13 5 71 c3 39 2 80 -2 91 -7
18 -10 16 -27 -20 -23 -49 -55 -66 -97 -54 -64 18 -44 -26 36 -79 58 -39 121
-86 175 -132 17 -15 22 -28 20 -52 -3 -32 -5 -33 -42 -30 -29 2 -44 -2 -62
-19 -19 -18 -26 -20 -39 -9 -12 10 -14 27 -9 94 l7 81 -25 -22 c-26 -24 -53
-30 -63 -13 -13 20 -45 10 -60 -20 -13 -25 -19 -29 -35 -20 -28 15 -34 29 -32
84 1 47 12 86 56 202 8 23 18 76 22 119 6 64 10 78 26 83 20 5 19 20 -7 107
l-12 40 -13 -27 c-15 -31 -18 -32 -54 -18 -34 12 -33 4 5 -68 28 -54 30 -63
20 -99 -17 -63 -42 -74 -103 -48 -28 12 -22 -15 17 -69 38 -53 41 -71 24 -110
-14 -30 -80 -55 -127 -48 -30 4 -32 3 -24 -19 5 -13 27 -37 50 -54 33 -24 41
-36 41 -63 1 -41 -17 -49 -59 -27 -32 17 -33 17 -62 -16 l-30 -33 -14 25 c-19
34 -17 69 7 123 11 26 27 77 34 114 8 38 21 85 30 105 11 27 12 38 3 43 -7 4
-13 3 -15 -2 -2 -5 -12 -24 -24 -43 -18 -30 -24 -33 -55 -28 -40 7 -43 -3 -14
-51 24 -39 25 -62 4 -88 -11 -13 -17 -15 -20 -6 -9 20 -37 14 -61 -15 -19 -24
-24 -26 -33 -13 -14 21 -12 60 3 106 8 22 17 54 20 72 6 28 4 33 -10 30 -10
-2 -28 -22 -41 -46 -20 -36 -28 -42 -56 -42 -57 0 -70 37 -41 120 18 51 13 60
-23 39 -18 -10 -29 -26 -32 -49 -4 -19 -14 -47 -23 -61 -20 -30 -10 -45 33
-51 49 -6 89 -128 56 -173 -13 -18 -14 -18 -27 3 -16 25 -47 29 -55 7 -11 -27
-32 -16 -44 21 -7 21 -10 58 -7 85 9 71 -16 62 -71 -26 -17 -28 -45 -64 -62
-80 -42 -39 -49 -55 -60 -122 -6 -33 -22 -75 -41 -105 -31 -48 -32 -52 -20
-92 7 -22 16 -69 20 -103 3 -34 14 -70 22 -80 10 -11 19 -46 22 -88 5 -59 11
-74 32 -92 14 -13 34 -23 43 -23 18 0 122 -92 122 -107 0 -5 12 -16 26 -23 32
-18 51 -53 65 -122 37 -179 175 -519 274 -673 20 -32 35 -59 33 -60 -2 -2 -38
-27 -81 -55 -185 -120 -374 -363 -427 -549 l-23 -79 -81 -45 c-338 -188 -575
-249 -773 -199 -100 25 -160 59 -213 119 -159 182 -141 483 51 819 169 294
434 565 810 827 108 75 122 88 117 114 -6 30 -36 26 -70 -10 -18 -18 -85 -68
-149 -111 -267 -177 -572 -452 -728 -656 -192 -249 -291 -495 -291 -717 1
-291 138 -463 395 -495 211 -27 523 61 816 227 62 36 114 65 116 65 2 0 3 -18
3 -39 0 -58 36 -160 75 -213 70 -96 164 -138 307 -138 349 0 795 163 1150 421
l68 49 157 0 158 0 45 -30 c54 -36 83 -37 164 -9 72 26 96 49 96 95 0 42 -10
42 -69 5 -54 -34 -98 -45 -130 -33 -22 8 -22 9 -6 25 9 9 25 17 34 17 37 0 43
24 20 84 -35 96 -67 226 -56 233 17 10 34 -25 74 -148 29 -92 42 -119 56 -119
23 0 22 17 -13 187 -32 151 -35 183 -22 183 7 0 28 -61 98 -287 2 -7 13 -13
25 -13 18 0 21 4 16 28 -3 15 -15 95 -27 177 -11 83 -26 161 -31 174 -8 18 -6
28 4 38 12 12 19 -3 46 -114 46 -184 60 -233 70 -233 5 0 23 24 40 54 16 30
38 60 48 68 10 7 33 38 52 68 31 52 33 59 28 120 -8 94 -44 264 -70 329 -18
44 -21 62 -13 84 9 25 12 21 52 -78 23 -57 45 -124 49 -147 4 -24 11 -60 16
-81 9 -32 13 -36 25 -27 8 7 14 30 14 55 0 40 -64 329 -95 425 -9 29 -12 57
-7 80 l8 35 28 -70 c15 -38 43 -130 61 -205 18 -74 35 -128 38 -120 10 28 37
304 37 374 0 136 -43 354 -113 571 -40 125 -67 188 -144 343 -74 146 -85 185
-62 235 7 16 8 40 1 74 -7 39 -5 59 5 85 16 37 13 73 -11 133 -8 22 -15 63
-16 91 0 48 -2 51 -35 67 -27 13 -41 29 -55 65 -39 92 -42 95 -127 118 -43 11
-97 30 -120 42 -30 16 -43 19 -43 10z m343 -300 c6 -19 -3 -38 -18 -38 -18 0
-28 17 -21 35 7 18 33 20 39 3z m21 -154 c19 -18 19 -20 6 -45 -13 -24 -50
-26 -50 -1 0 27 12 62 20 62 5 0 16 -7 24 -16z m-335 -145 c29 -10 32 -15 29
-48 -2 -23 -8 -36 -18 -37 -8 -1 -20 -2 -26 -3 -6 0 -17 -15 -24 -32 -8 -19
-18 -28 -27 -25 -8 4 -21 6 -30 6 -12 0 -13 10 -7 58 11 94 28 107 103 81z
m185 -45 c21 -8 22 -64 1 -64 -9 0 -27 -12 -40 -26 -21 -22 -27 -25 -40 -14
-15 13 -20 65 -9 94 6 16 57 22 88 10z m132 -28 c-3 -14 -15 -30 -26 -36 -18
-10 -20 -8 -20 20 0 23 6 33 23 39 28 11 31 8 23 -23z m-1859 -76 c37 -22 50
-58 33 -89 -10 -20 -13 -20 -40 -6 -33 17 -57 11 -65 -16 -9 -27 -33 -24 -41
6 -8 34 3 75 28 103 26 27 44 28 85 2z m-337 -6 c0 -11 -23 -50 -44 -72 l-21
-24 -6 29 c-4 20 0 35 15 51 17 20 56 31 56 16z m108 -46 c10 -13 15 -49 13
-107 -1 -33 -1 -33 -26 -17 -34 22 -41 20 -55 -14 -7 -16 -16 -30 -20 -30 -5
0 -11 14 -15 30 -18 81 62 188 103 138z m1541 1 c17 -6 31 -17 31 -24 0 -17
-27 -45 -44 -45 -7 0 -21 -9 -31 -20 -23 -26 -31 -25 -49 3 -13 18 -13 30 -4
60 9 31 16 37 38 37 15 0 41 -5 59 -11z m554 -51 c104 -160 167 -307 247 -577
24 -84 22 -104 -5 -34 -10 27 -33 80 -52 120 -18 40 -33 75 -33 78 0 20 -80
202 -139 317 -39 76 -71 140 -71 143 0 19 24 -3 53 -47z m-1450 16 c50 -25 67
-45 67 -75 0 -53 -7 -60 -46 -41 -33 15 -35 15 -50 -6 -20 -28 -35 -28 -63 2
-21 22 -22 28 -11 60 9 29 51 76 67 76 2 0 18 -7 36 -16z m1081 -4 c4 -4 -2
-18 -14 -30 -40 -40 -105 -7 -69 36 12 15 64 11 83 -6z m-628 -22 c64 -43 67
-73 9 -73 -25 0 -51 -8 -71 -22 -28 -20 -33 -21 -44 -8 -25 30 15 133 51 135
4 0 29 -15 55 -32z m920 -59 c26 -39 66 -115 90 -168 24 -53 62 -131 84 -173
22 -42 40 -86 40 -97 0 -12 7 -24 15 -27 9 -4 15 -19 15 -35 0 -16 13 -55 29
-87 56 -112 131 -379 130 -462 0 -34 -1 -34 -10 -10 -6 14 -19 64 -29 111 -24
105 -83 277 -118 343 -51 94 -125 78 -76 -16 l17 -32 -32 26 c-17 15 -39 29
-48 32 -17 5 -84 133 -146 277 -14 31 -29 59 -35 63 -6 3 -18 30 -28 59 -9 28
-23 59 -30 68 -8 8 -14 22 -14 30 0 8 -9 32 -20 54 -25 50 -25 57 2 53 22 -3
57 -57 188 -290 34 -61 48 -78 66 -78 l22 0 -20 63 c-18 54 -61 150 -103 227
-78 142 -69 193 11 69z m-1635 2 c28 -28 39 -47 39 -69 l0 -31 -37 15 c-35 15
-36 15 -59 -13 -23 -27 -24 -28 -39 -9 -8 11 -15 28 -15 37 0 40 40 109 63
109 5 0 27 -17 48 -39z m-571 -57 c0 -36 -17 -64 -35 -58 -20 8 -19 43 2 66
22 25 33 23 33 -8z m2027 -69 c71 -120 143 -270 143 -296 0 -11 9 -34 20 -49
11 -16 27 -45 35 -64 l15 -36 -32 6 c-18 4 -45 12 -60 19 -16 8 -30 10 -34 4
-3 -5 -27 -9 -53 -9 -27 0 -72 -5 -102 -10 -38 -7 -55 -7 -57 0 -2 6 -15 23
-29 38 l-24 27 3 -46 c3 -42 1 -47 -23 -56 -23 -9 -28 -7 -43 17 -9 16 -16 38
-16 49 0 27 -27 93 -42 102 -6 4 -25 43 -41 86 -15 43 -34 94 -42 113 -13 34
-10 60 6 60 4 0 27 -31 50 -70 61 -103 98 -87 44 20 -30 60 -31 76 -4 90 24
13 21 15 43 -27 24 -48 40 -42 33 12 -6 38 -4 46 13 55 25 14 55 -4 71 -43 6
-15 20 -32 30 -38 25 -13 24 -8 -6 51 -30 58 -29 54 -9 75 32 31 55 14 111
-80z m-1690 53 c54 -53 39 -116 -26 -106 -23 3 -31 0 -35 -15 -12 -46 -61 38
-51 89 13 70 59 83 112 32z m1177 19 c10 -7 15 -19 11 -28 -6 -17 -92 -48
-113 -41 -15 5 -16 36 -2 63 13 23 76 27 104 6z m-456 -36 c28 -27 41 -51 27
-51 -3 0 -36 -9 -74 -19 -84 -23 -98 -17 -81 33 22 69 76 84 128 37z m-968
-60 c32 -32 50 -83 31 -89 -6 -2 -18 -10 -25 -18 -47 -47 -111 52 -72 111 21
32 31 31 66 -4z m655 9 c7 0 23 -8 35 -18 19 -15 21 -22 12 -39 -8 -15 -18
-19 -36 -16 -20 4 -28 0 -37 -21 -12 -25 -13 -25 -31 -10 -35 32 -10 124 30
109 7 -3 20 -5 27 -5z m482 -41 c7 -6 13 -25 13 -41 0 -27 -3 -29 -24 -24 -16
4 -29 0 -41 -14 -50 -55 -91 15 -44 75 18 22 27 26 52 21 17 -3 36 -11 44 -17z
m-707 -51 c18 -13 30 -31 30 -45 0 -26 -12 -30 -30 -8 -18 22 -36 19 -59 -11
-19 -24 -20 -25 -30 -5 -13 24 -14 33 -1 65 12 33 49 34 90 4z m1074 -57 c19
-36 48 -102 67 -146 18 -44 43 -90 55 -102 19 -18 49 -82 42 -88 -7 -5 -47
-25 -51 -25 -5 0 -41 90 -53 130 -3 14 -15 37 -26 53 -29 41 -100 257 -82 250
8 -3 30 -35 48 -72z m-610 8 c32 -25 33 -47 4 -58 -55 -20 -87 -28 -92 -23 -8
7 -8 66 0 86 9 23 56 20 88 -5z m493 -61 c27 -46 55 -99 62 -118 8 -19 34 -77
58 -127 42 -89 47 -113 20 -113 -18 0 -42 46 -66 127 -14 46 -35 89 -60 120
-21 27 -43 58 -49 69 -12 23 -28 124 -19 124 3 0 27 -37 54 -82z m-1316 12 c9
0 49 -59 49 -73 0 -4 -19 -16 -43 -26 -23 -10 -48 -26 -56 -35 -31 -37 -71 -2
-71 63 0 42 58 86 98 75 8 -2 18 -4 23 -4z m545 -33 c19 -17 25 -29 20 -42 -5
-14 -9 -16 -18 -7 -9 9 -16 8 -29 -4 -41 -37 -82 21 -43 60 21 22 38 20 70 -7z
m519 -59 c22 -56 56 -131 110 -243 24 -49 49 -108 56 -130 6 -22 40 -97 75
-167 35 -70 80 -167 100 -214 20 -48 47 -105 61 -127 13 -21 27 -56 30 -76 3
-20 18 -56 33 -81 15 -25 31 -61 35 -80 4 -19 20 -57 35 -85 15 -27 33 -68 40
-90 7 -22 21 -57 32 -78 11 -22 17 -46 13 -55 -8 -22 -41 29 -95 148 -24 52
-54 109 -66 125 -31 43 -291 671 -299 723 -5 30 -19 57 -46 89 -29 32 -38 51
-33 65 4 12 -6 43 -24 81 -37 74 -93 237 -82 237 4 0 15 -19 25 -42z m-141 6
c9 -8 19 -27 22 -42 3 -15 12 -51 20 -81 26 -91 3 -76 -36 24 -13 33 -29 67
-35 75 -13 16 -10 40 5 40 5 0 16 -7 24 -16z m-653 -24 c11 -6 19 -21 19 -36
0 -24 -3 -25 -27 -19 -34 8 -32 5 -26 38 6 31 7 31 34 17z m544 -100 c10 -30
31 -81 46 -112 29 -57 38 -105 19 -93 -18 11 -39 60 -65 152 -14 48 -28 97
-31 108 -14 46 15 -4 31 -55z m479 -61 c3 -21 13 -42 21 -49 8 -6 21 -35 29
-64 9 -29 25 -64 36 -79 11 -14 40 -77 65 -141 24 -63 60 -146 79 -184 39 -77
171 -398 222 -539 27 -75 30 -93 19 -103 -10 -9 -16 -3 -25 27 -7 21 -23 57
-36 80 -13 23 -24 48 -24 56 0 9 -16 46 -36 84 -20 37 -54 113 -75 168 -21 55
-70 179 -110 275 -39 96 -84 210 -100 252 -15 43 -39 94 -53 115 -14 21 -30
59 -35 85 -6 25 -20 62 -32 82 -11 19 -17 41 -13 47 9 16 59 -66 68 -112z
m-1192 74 c29 -26 23 -41 -14 -34 -24 5 -34 13 -36 29 -4 27 23 30 50 5z m583
-23 c21 -41 18 -60 -5 -31 -18 21 -28 61 -15 61 2 0 11 -13 20 -30z m-115 -26
c7 -19 10 -38 7 -41 -7 -7 -37 52 -37 72 0 26 17 8 30 -31z m-112 -1 c5 -16
27 -77 47 -138 37 -110 302 -695 358 -790 16 -27 37 -71 48 -97 10 -27 26 -60
35 -73 9 -14 12 -25 6 -25 -6 0 -27 29 -47 65 -20 36 -41 68 -46 71 -6 3 -20
29 -33 57 -13 29 -35 70 -49 91 -15 21 -27 46 -27 55 0 10 -16 44 -36 77 -53
88 -145 315 -208 517 -31 99 -61 187 -67 198 -5 11 -6 19 -1 19 5 0 14 -12 20
-27z m-93 9 c6 -4 11 -18 13 -32 4 -44 73 -242 129 -370 30 -69 76 -186 104
-259 27 -74 59 -149 69 -167 11 -17 26 -49 34 -70 8 -21 22 -57 31 -79 17 -40
17 -40 -3 -22 -11 10 -32 46 -46 80 -15 34 -51 110 -81 170 -30 59 -55 114
-55 122 0 8 -22 68 -49 133 -56 132 -132 349 -151 432 -7 30 -18 58 -24 62 -7
5 -6 8 4 8 8 0 20 -4 25 -8z m-1 -340 c47 -133 103 -279 126 -324 22 -44 40
-91 40 -102 0 -37 -35 28 -94 179 -30 77 -69 171 -86 209 -17 38 -40 109 -51
159 -11 49 -26 102 -34 118 -8 15 -15 34 -15 41 1 28 32 -48 114 -280z m280
144 c4 -22 22 -68 40 -101 18 -33 46 -96 61 -140 16 -44 81 -177 145 -295 65
-118 143 -267 175 -330 32 -63 74 -140 95 -170 20 -30 45 -71 55 -90 l18 -35
-28 25 c-33 30 -88 111 -140 205 -21 39 -60 101 -86 138 -26 38 -51 83 -55
100 -3 17 -22 51 -40 75 -49 65 -124 225 -194 417 -88 242 -97 266 -104 305
-6 35 -6 34 23 -14 16 -27 32 -67 35 -90z m-465 81 c16 -45 21 -77 12 -77 -6
0 -15 18 -21 41 -6 22 -14 47 -17 56 -4 11 -3 14 6 9 7 -5 16 -18 20 -29z
m1741 22 c25 -5 57 -19 72 -29 15 -11 33 -20 41 -20 7 0 24 -12 38 -27 13 -16
17 -22 9 -15 -42 36 -40 -16 5 -128 66 -164 67 -169 54 -226 -12 -52 -12 -53
-30 -31 -25 31 -31 18 -19 -40 9 -42 8 -57 -5 -89 l-17 -39 -14 30 c-8 17 -30
65 -49 108 -21 47 -40 77 -50 77 -22 0 -19 -17 30 -156 40 -112 44 -132 34
-156 -6 -15 -15 -28 -18 -28 -6 0 -83 169 -160 353 -22 51 -51 64 -51 23 0
-14 14 -62 31 -108 104 -279 128 -360 115 -380 -8 -14 -15 -8 -38 38 -33 64
-170 391 -188 449 -7 22 -42 109 -78 194 -61 146 -64 155 -46 168 10 7 23 13
28 13 6 0 27 -39 47 -88 22 -54 42 -88 52 -90 24 -5 21 17 -14 110 -26 65 -29
82 -18 89 19 12 184 11 239 -2z m-1154 -105 c19 -43 46 -109 59 -146 32 -89
190 -387 297 -563 48 -78 101 -174 119 -215 18 -41 57 -113 86 -159 29 -47 53
-90 53 -95 -1 -14 -27 19 -95 119 -30 44 -91 134 -136 200 -113 165 -293 542
-368 768 -13 37 -33 87 -46 110 -13 23 -26 53 -30 67 -15 52 26 -5 61 -86z
m263 58 c10 -20 26 -62 36 -92 9 -30 46 -109 80 -175 34 -66 66 -131 70 -145
4 -14 95 -200 202 -414 137 -274 192 -391 184 -399 -7 -7 -17 4 -33 39 -13 27
-48 87 -79 134 -86 130 -148 254 -252 500 -52 124 -111 259 -131 301 -44 94
-100 234 -110 272 -9 38 9 27 33 -21z m578 -296 c5 -51 11 -65 35 -86 31 -27
146 -290 194 -447 24 -76 27 -133 6 -133 -4 0 -47 100 -96 223 -49 122 -123
299 -164 392 -41 94 -83 196 -95 228 -19 56 -19 58 -1 71 17 13 22 6 66 -87
35 -72 50 -118 55 -161z m527 167 c25 -72 19 -74 -14 -5 -34 72 -36 79 -16 63
8 -7 22 -33 30 -58z m-1139 -145 c46 -95 89 -180 94 -188 5 -8 20 -37 33 -65
13 -27 38 -72 55 -100 43 -71 249 -465 258 -494 4 -14 27 -55 51 -93 24 -38
44 -74 44 -81 0 -13 -38 41 -115 162 -27 44 -78 119 -112 168 -97 138 -173
293 -328 673 -26 63 -53 125 -61 137 -14 22 -19 53 -9 53 3 0 44 -78 90 -172z
m-722 10 c51 -141 64 -189 47 -172 -11 11 -110 275 -110 294 0 32 23 -13 63
-122z m117 -278 c11 -23 25 -52 31 -67 9 -23 8 -25 -6 -13 -17 14 -38 51 -55
95 -16 41 7 29 30 -15z m1869 -152 c34 -132 49 -242 33 -252 -14 -8 -29 38
-37 109 -8 74 -23 138 -45 190 -13 30 -15 46 -7 63 6 12 14 19 18 15 5 -5 22
-61 38 -125z m-33 -278 c4 -48 2 -70 -8 -84 -14 -18 -15 -17 -25 10 -6 16 -16
71 -23 123 -6 52 -19 118 -28 146 -16 47 -16 55 -3 75 14 21 16 16 48 -92 18
-62 36 -142 39 -178z m-1626 204 c7 -20 10 -37 7 -40 -7 -7 -35 40 -43 72 -7
26 -6 28 9 16 9 -8 21 -29 27 -48z m-120 31 c7 -9 8 -15 2 -15 -5 0 -12 7 -16
15 -3 8 -4 15 -2 15 2 0 9 -7 16 -15z m-55 -137 c-11 -57 -62 -151 -120 -220
-61 -74 -258 -244 -263 -228 -8 21 41 141 88 217 78 127 224 263 283 263 16 0
18 -5 12 -32z m265 -81 l11 -32 -25 25 c-13 14 -27 36 -31 50 -8 25 -7 25 13
7 11 -11 26 -33 32 -50z m-115 -27 c82 -83 204 -192 240 -215 17 -11 43 -30
59 -43 16 -13 78 -48 137 -78 86 -43 132 -59 223 -77 64 -13 118 -26 122 -30
8 -7 -150 -112 -260 -172 -302 -164 -676 -239 -872 -175 -53 18 -126 82 -156
136 -26 49 -48 139 -48 200 0 28 9 38 73 87 139 104 325 290 383 381 16 25 31
46 34 46 3 0 32 -27 65 -60z m254 6 c26 -41 28 -65 5 -45 -14 12 -44 61 -44
74 0 16 21 1 39 -29z m189 -107 c9 -18 27 -43 40 -57 27 -30 28 -36 4 -23 -24
13 -46 40 -66 79 -21 42 -1 43 22 1z m-92 -44 c9 -14 14 -28 10 -32 -8 -9 -46
27 -46 44 0 21 18 15 36 -12z m920 -78 c41 -92 48 -117 35 -117 -28 0 -100
143 -88 175 11 27 21 16 53 -58z m-69 -133 c-22 -22 -77 78 -62 113 6 14 14 4
37 -46 16 -35 27 -65 25 -67z m-630 60 c-10 -10 -37 16 -37 34 0 13 4 12 22
-5 12 -13 19 -25 15 -29z m158 -35 c4 -11 5 -23 2 -26 -8 -8 -47 35 -47 52 0
23 37 1 45 -26z m130 -6 c22 -26 25 -50 4 -38 -11 8 -42 65 -34 65 3 0 17 -12
30 -27z m224 1 c6 -15 10 -29 7 -31 -8 -8 -47 37 -41 47 10 17 21 11 34 -16z
m-79 -44 c0 -5 -2 -10 -4 -10 -3 0 -8 5 -11 10 -3 6 -1 10 4 10 6 0 11 -4 11
-10z"/>
<path d="M4920 3778 c0 -6 9 -31 21 -55 38 -80 55 -61 19 21 -20 43 -40 61
-40 34z"/>
<path d="M4840 3676 c0 -24 26 -54 36 -43 11 10 -5 54 -21 61 -11 4 -15 -1
-15 -18z"/>
<path d="M4995 3620 c-8 -13 16 -62 33 -68 21 -7 15 56 -7 68 -13 7 -22 7 -26
0z"/>
<path d="M4876 3343 c-4 -10 1 -24 14 -37 l20 -20 0 26 c0 33 -25 56 -34 31z"/>
<path d="M4927 3254 c-15 -15 -6 -54 18 -81 l24 -28 1 36 c0 37 -29 87 -43 73z"/>
<path d="M5060 3187 c0 -30 24 -62 38 -53 18 11 14 41 -6 59 -25 23 -32 21
-32 -6z"/>
<path d="M4837 3164 c-15 -15 -6 -64 17 -91 21 -24 25 -26 31 -11 8 20 -16
100 -31 105 -6 2 -13 0 -17 -3z"/>
<path d="M4980 3088 c0 -18 10 -48 21 -67 19 -31 22 -33 31 -17 11 20 3 60
-18 94 -21 31 -34 27 -34 -10z"/>
<path d="M5117 3094 c-17 -18 24 -124 48 -124 21 0 19 23 -6 81 -21 47 -29 56
-42 43z"/>
<path d="M4164 4949 c-19 -21 -18 -21 5 -40 29 -24 41 -17 41 27 0 40 -17 45
-46 13z"/>
<path d="M3811 4937 c-14 -7 -26 -18 -29 -24 -6 -19 47 -16 54 2 10 26 0 35
-25 22z"/>
<path d="M3986 4883 c-4 -11 -18 -25 -31 -31 -14 -6 -25 -15 -25 -20 0 -12 68
-48 76 -39 11 11 9 86 -3 98 -8 8 -13 6 -17 -8z"/>
<path d="M3602 4873 c2 -10 16 -24 31 -33 24 -13 29 -13 37 0 22 34 12 50 -31
50 -33 0 -40 -3 -37 -17z"/>
<path d="M3499 4807 c-14 -12 -35 -27 -45 -33 -17 -10 -13 -16 41 -70 33 -32
65 -67 70 -77 8 -14 17 -17 38 -12 26 7 27 10 27 66 0 60 -11 75 -30 39 -12
-22 -49 -27 -68 -8 -16 16 -15 53 3 88 19 37 3 40 -36 7z"/>
<path d="M4180 4785 c-6 -14 -10 -31 -10 -36 0 -6 -17 -8 -45 -3 -39 5 -44 4
-39 -10 3 -8 33 -33 65 -55 l59 -39 0 78 c0 82 -13 110 -30 65z"/>
<path d="M3308 4758 c-54 -67 -54 -66 -16 -101 18 -18 43 -45 55 -62 19 -26
23 -28 39 -15 19 16 53 86 54 109 0 10 -7 8 -24 -8 -18 -17 -33 -22 -62 -19
-49 4 -56 32 -20 76 26 29 34 62 17 62 -5 0 -24 -19 -43 -42z"/>
<path d="M4773 4758 c-5 -7 -13 -21 -16 -30 -4 -13 -17 -18 -42 -18 -19 0 -35
-4 -35 -10 0 -17 48 -42 91 -47 l42 -6 -8 49 c-9 63 -18 80 -32 62z"/>
<path d="M3970 4695 c-7 -8 -25 -15 -41 -15 -46 0 -32 -48 22 -76 47 -24 61
-13 57 48 -3 54 -16 69 -38 43z"/>
<path d="M4956 4681 c-11 -12 -37 -26 -60 -32 -38 -10 -39 -12 -21 -25 10 -8
25 -14 33 -14 8 0 29 -7 48 -16 33 -16 36 -16 49 2 20 27 18 49 -8 79 l-22 27
-19 -21z"/>
<path d="M5100 1714 c-38 -33 -60 -74 -60 -114 0 -24 6 -33 28 -41 67 -26 167
87 141 159 -12 32 -68 30 -109 -4z"/>
</g>
</svg>
